<svg xmlns="http://www.w3.org/2000/svg" viewBox="-8 5 500 110" fill="currentColor">
  <!-- DNA Helix Left Strand -->
  <path d="M18 15 Q38 30 18 50 Q-2 70 18 85 Q38 100 18 115" fill="none" stroke="currentColor" stroke-width="3.5" stroke-linecap="round"/>
  <!-- DNA Helix Right Strand -->
  <path d="M52 15 Q32 30 52 50 Q72 70 52 85 Q32 100 52 115" fill="none" stroke="currentColor" stroke-width="3.5" stroke-linecap="round"/>

  <!-- Horizontal Rungs / Data Connections -->
  <line x1="22" y1="22" x2="48" y2="22" stroke="currentColor" stroke-width="2" opacity="0.4"/>
  <line x1="18" y1="37" x2="52" y2="37" stroke="currentColor" stroke-width="2" opacity="0.5"/>
  <line x1="22" y1="50" x2="48" y2="50" stroke="currentColor" stroke-width="2" opacity="0.4"/>
  <line x1="18" y1="65" x2="52" y2="65" stroke="currentColor" stroke-width="2" opacity="0.5"/>
  <line x1="22" y1="78" x2="48" y2="78" stroke="currentColor" stroke-width="2" opacity="0.4"/>
  <line x1="18" y1="93" x2="52" y2="93" stroke="currentColor" stroke-width="2" opacity="0.5"/>
  <line x1="22" y1="108" x2="48" y2="108" stroke="currentColor" stroke-width="2" opacity="0.4"/>

  <!-- Network Nodes on Helix -->
  <circle cx="18" cy="15" r="4" opacity="0.9"/>
  <circle cx="52" cy="15" r="3" opacity="0.6"/>
  <circle cx="18" cy="50" r="3.5" opacity="0.8"/>
  <circle cx="52" cy="50" r="4" opacity="0.9"/>
  <circle cx="18" cy="85" r="3" opacity="0.7"/>
  <circle cx="52" cy="85" r="4" opacity="0.9"/>
  <circle cx="18" cy="115" r="3.5" opacity="0.8"/>
  <circle cx="52" cy="115" r="3" opacity="0.6"/>

  <!-- External Network Nodes -->
  <rect x="62" y="28" width="6" height="6" rx="1" opacity="0.3" transform="rotate(45 65 31)"/>
  <rect x="62" y="75" width="5" height="5" rx="1" opacity="0.25" transform="rotate(45 64.5 77.5)"/>
  <line x1="52" y1="50" x2="65" y2="31" stroke="currentColor" stroke-width="1" opacity="0.2"/>
  <line x1="52" y1="85" x2="65" y2="78" stroke="currentColor" stroke-width="1" opacity="0.2"/>

  <rect x="-2" y="58" width="5" height="5" rx="1" opacity="0.25" transform="rotate(45 0.5 60.5)"/>
  <line x1="18" y1="50" x2="1" y2="61" stroke="currentColor" stroke-width="1" opacity="0.2"/>

  <!-- Lab Name -->
  <text x="90" y="72" font-family="'Helvetica Neue', Helvetica, Arial, sans-serif" font-size="48" font-weight="300" letter-spacing="-0.5">
    <tspan font-weight="300">M</tspan><tspan font-weight="300">O</tspan><tspan font-weight="300">s</tspan><tspan font-weight="700" font-size="50">AI</tspan><tspan font-weight="300">ci</tspan><tspan font-weight="300">S</tspan><tspan font-weight="300">M</tspan>
  </text>

  <!-- Subtitle -->
  <text x="91" y="98" font-family="'Helvetica Neue', Helvetica, Arial, sans-serif" font-size="11" font-weight="300" letter-spacing="3.5" opacity="0.55">
    DECODING SOMATIC MOSAICISM
  </text>
</svg>
